<svg width="23" height="22" viewBox="0 0 23 22" fill="none" xmlns="http://www.w3.org/2000/svg">
<g clip-path="url(#clip0_1_2966)">
<path d="M17.5231 8.41958C17.5939 8.35355 17.679 8.30478 17.7718 8.27709C17.8646 8.2494 17.9625 8.24353 18.0579 8.25995C18.1533 8.27637 18.2436 8.31463 18.3218 8.37174C18.4 8.42885 18.4639 8.50326 18.5086 8.58916C18.5935 8.73952 18.6261 8.91385 18.6012 9.08475C18.5763 9.25565 18.4954 9.41344 18.3711 9.53333L12.3761 14.96C12.2603 15.066 12.109 15.1247 11.9521 15.1247C11.7952 15.1247 11.6439 15.066 11.5281 14.96L5.5698 9.53333C5.44691 9.41247 5.36728 9.25447 5.34326 9.08378C5.31923 8.9131 5.35214 8.73925 5.43689 8.58916C5.48154 8.50326 5.54545 8.42885 5.62363 8.37174C5.7018 8.31463 5.79212 8.27637 5.88753 8.25995C5.98294 8.24353 6.08086 8.2494 6.17363 8.27709C6.2664 8.30478 6.35151 8.35355 6.4223 8.41958L11.9727 13.4612L17.5231 8.41958ZM11.849 14.4008C11.8793 14.3778 11.9163 14.3653 11.9544 14.3653C11.9925 14.3653 12.0295 14.3778 12.0598 14.4008L11.9544 14.3046L11.849 14.4008Z" fill="#C0C0C0"/>
</g>
<defs>
<clipPath id="clip0_1_2966">
<rect width="22" height="22" fill="white" transform="translate(0.734375)"/>
</clipPath>
</defs>
</svg>
